<?xml version="1.0" standalone="no"?>
<!DOCTYPE svg PUBLIC "-//W3C//DTD SVG 20010904//EN"
 "http://www.w3.org/TR/2001/REC-SVG-20010904/DTD/svg10.dtd">
<svg version="1.0" xmlns="http://www.w3.org/2000/svg"
 width="300.000000pt" height="276.000000pt" viewBox="0 0 300.000000 276.000000"
 preserveAspectRatio="xMidYMid meet">
<g transform="translate(0.000000,276.000000) scale(0.100000,-0.100000)"
fill="#E91125" stroke="none">
<path d="M1795 2721 c-3 -6 -8 -24 -10 -41 -7 -59 -140 -181 -262 -242 -75
-37 -85 -40 -100 -26 -43 36 -85 43 -253 42 -231 -1 -333 -30 -422 -118 -24
-23 -69 -62 -101 -86 -61 -45 -131 -128 -166 -196 -20 -39 -50 -176 -48 -224
0 -14 0 -50 -1 -80 -2 -51 -4 -56 -26 -58 -44 -3 -76 -21 -96 -54 -39 -64 -20
-128 61 -203 53 -50 219 -135 263 -135 13 0 26 -4 28 -9 7 -18 101 -83 149
-101 28 -11 105 -34 171 -51 105 -27 133 -31 203 -26 90 6 182 36 211 68 15
17 19 36 18 93 -2 83 -15 138 -55 224 -23 48 -27 67 -19 81 28 54 2 236 -41
282 -43 46 -84 41 -153 -22 l-55 -50 -17 33 c-27 51 -23 119 8 160 33 44 91
83 159 109 132 51 250 13 380 -121 42 -43 86 -99 99 -125 29 -59 55 -58 89 4
33 61 41 210 16 297 -9 32 -21 64 -27 71 -6 8 -4 22 6 41 57 111 77 321 40
416 -19 49 -37 66 -49 47z m37 -136 c3 -35 0 -40 -24 -49 -19 -7 -31 -6 -42 3
-14 12 -13 17 14 48 17 18 30 39 30 45 0 30 19 -11 22 -47z m-69 -59 c23 -18
22 -32 -5 -50 -28 -20 -39 -20 -64 -1 -18 14 -18 15 11 39 35 29 35 29 58 12z
m73 -12 c-3 -9 -6 -23 -6 -31 0 -13 -3 -13 -15 -3 -18 15 -19 37 -2 43 23 10
29 7 23 -9z m-27 -48 c16 -29 6 -66 -18 -66 -10 0 -27 10 -39 23 l-22 24 25
11 c14 6 25 16 25 22 0 18 16 11 29 -14z m-113 -2 l25 -17 -22 -23 c-26 -28
-61 -31 -80 -8 -11 14 -10 20 14 40 33 29 31 28 63 8z m-500 -49 c-25 -19 -50
-19 -66 0 -11 13 -6 15 36 15 45 -1 48 -2 30 -15z m131 1 c12 -12 -30 -18 -53
-8 -13 7 -24 7 -24 2 0 -5 9 -12 20 -15 34 -11 22 -22 -32 -28 -66 -8 -80 4
-42 37 24 21 37 24 78 21 26 -2 51 -6 53 -9z m315 -29 c10 -3 8 -9 -6 -26 -27
-30 -71 -28 -92 4 -19 29 -20 27 21 48 28 14 31 14 47 -3 9 -10 23 -20 30 -23z
m137 -14 c1 -7 -10 -20 -24 -29 -20 -13 -31 -15 -50 -6 -29 13 -53 52 -32 52
8 0 22 9 32 20 17 19 18 19 46 -3 15 -12 28 -28 28 -34z m-728 36 c-16 -6 -28
-6 -35 1 -7 7 1 10 25 9 32 0 33 -1 10 -10z m77 -6 c16 -10 27 -24 24 -32 -3
-8 0 -11 7 -7 6 4 11 3 11 -3 0 -5 -8 -10 -17 -9 -10 0 -32 -3 -48 -7 -24 -5
-35 -2 -50 15 -19 21 -19 22 5 41 31 23 33 23 68 2z m-113 -9 c20 -15 20 -16
-8 -40 -17 -14 -22 -24 -14 -24 8 0 20 7 27 15 7 8 16 12 21 9 17 -10 9 -22
-19 -29 -30 -6 -80 14 -103 41 -29 35 55 59 96 28z m355 6 c0 -5 -9 -10 -19
-10 -11 0 -28 -3 -38 -6 -10 -3 -7 2 7 10 29 18 50 20 50 6z m-491 -36 c-17
-17 -34 -25 -50 -22 -22 3 -21 5 16 25 54 30 65 28 34 -3z m634 11 c-3 -9 -2
-15 3 -13 5 1 23 -8 41 -21 26 -20 30 -28 22 -43 -11 -21 -29 -24 -29 -4 0 8
-13 28 -30 46 -28 30 -32 50 -10 50 5 0 7 -7 3 -15z m292 -7 c-3 -13 -19 -49
-35 -80 -28 -57 -28 -58 -10 -81 21 -26 37 -77 24 -77 -10 0 -54 41 -54 51 0
4 8 10 18 12 9 3 3 5 -15 6 -19 1 -41 10 -53 24 -20 20 -20 23 -4 32 9 6 25
17 35 26 16 16 18 16 35 0 17 -15 17 -15 1 10 -15 25 -15 27 8 37 14 6 27 23
31 37 3 14 10 25 16 25 5 0 7 -10 3 -22z m-891 -13 c3 -8 18 -20 33 -26 l27
-10 -44 -20 -44 -20 -17 23 c-17 21 -16 23 4 44 27 27 33 28 41 9z m563 -17
c40 -37 66 -97 67 -155 1 -72 -11 -81 -71 -56 -74 32 -124 37 -192 19 -259
-66 -350 -264 -191 -414 31 -29 40 -44 40 -70 0 -85 -48 -104 -230 -87 -57 6
-69 4 -100 -17 -59 -40 -80 -81 -80 -157 1 -48 7 -79 24 -113 13 -27 19 -48
15 -48 -5 0 -9 3 -9 8 0 4 -12 15 -27 23 -25 16 -26 20 -24 90 2 94 -15 213
-36 249 -23 40 -78 67 -151 75 -45 5 -62 11 -59 20 3 7 8 54 12 106 10 138 29
204 82 282 40 59 136 157 154 157 4 0 2 -21 -3 -46 -16 -73 -5 -220 20 -285
33 -83 148 -209 191 -209 10 0 12 13 7 63 -4 37 -3 82 4 108 10 41 9 49 -20
108 -60 122 -57 214 8 255 46 30 75 38 242 71 74 15 162 33 195 40 74 16 101
12 132 -17z m219 -8 c25 0 25 -20 0 -45 -30 -30 -45 -31 -74 -5 -25 24 -29 50
-7 50 8 0 20 9 27 20 l13 21 14 -21 c7 -11 19 -20 27 -20z m-865 0 c4 0 6 -7
2 -15 -8 -23 -56 -45 -73 -35 -12 7 -10 14 10 35 13 14 30 23 38 20 7 -3 18
-5 23 -5z m21 -86 l-26 -33 -24 22 c-22 20 -22 23 -6 32 9 5 24 17 33 26 14
14 18 14 33 1 16 -13 15 -17 -10 -48z m781 13 c18 -12 18 -14 0 -34 -30 -36
-56 -33 -64 6 -8 41 17 81 35 56 6 -8 19 -20 29 -28z m-863 -1 c0 -12 -36 -56
-46 -56 -6 0 5 59 12 72 7 11 34 -2 34 -16z m52 -79 c-3 -10 -15 -24 -28 -29
-20 -9 -28 -8 -48 11 l-24 22 27 27 26 27 26 -20 c16 -13 24 -27 21 -38z m885
13 c7 0 14 -9 18 -20 3 -11 17 -28 31 -39 30 -24 30 -36 0 -56 -27 -18 -68 -8
-84 22 -8 14 -5 21 19 35 16 10 29 23 29 29 0 6 -12 1 -26 -10 -35 -28 -50
-26 -80 6 l-25 27 31 12 c16 7 30 19 30 25 0 7 10 3 23 -9 13 -12 28 -22 34
-22z m-69 -92 c-10 -22 -56 -34 -70 -20 -7 7 -6 16 1 30 6 11 11 30 11 42 0
21 1 21 34 -7 25 -21 31 -32 24 -45z m-881 9 c-24 -36 -37 -32 -37 12 l0 41
25 -16 c23 -15 24 -19 12 -37z m63 6 l0 -38 -20 25 c-18 23 -18 26 -3 38 23
17 23 17 23 -25z m9 -65 c2 -35 -60 -49 -91 -21 -22 20 -24 43 -3 43 8 0 20 9
27 19 12 19 12 19 39 -2 15 -12 28 -30 28 -39z m867 12 c8 0 14 -4 14 -10 0
-13 51 9 67 28 11 13 13 13 19 -2 10 -25 -3 -172 -17 -198 l-12 -22 -8 21 c-4
11 -12 24 -17 27 -6 3 3 19 19 35 16 16 29 33 29 38 0 4 -16 21 -35 36 -19 15
-35 23 -35 18 0 -6 13 -20 29 -32 25 -18 28 -25 18 -40 -20 -32 -39 -31 -73 2
-33 32 -33 33 -12 43 12 6 24 18 26 26 4 12 1 11 -15 -2 -27 -24 -45 -23 -72
6 -22 24 -22 24 -3 30 11 4 23 14 27 24 6 15 9 15 22 -5 9 -13 22 -23 29 -23z
m-837 -69 c11 -21 17 -41 14 -45 -13 -13 -48 -5 -70 16 -26 24 -29 38 -9 38 7
0 19 7 26 15 17 20 17 20 39 -24z m-83 -13 c3 -11 19 -27 35 -37 l29 -18 -21
-21 c-27 -30 -46 -28 -63 7 -14 26 -14 30 -1 41 8 7 15 18 15 24 0 6 -7 3 -14
-7 -15 -20 -20 -16 -30 25 -6 27 -5 27 19 16 13 -6 27 -20 31 -30z m120 -63
c9 -35 -1 -42 -26 -20 -11 10 -20 13 -20 7 0 -7 9 -17 20 -24 23 -14 26 -38 8
-56 -18 -18 -49 -14 -75 10 -26 24 -29 38 -10 38 8 0 28 16 46 35 38 42 48 43
57 10z m369 -80 c0 -27 -41 -46 -71 -33 -31 14 -30 24 4 42 36 21 67 16 67 -9z
m505 3 c0 -6 -6 -5 -15 2 -8 7 -15 14 -15 16 0 2 7 1 15 -2 8 -4 15 -11 15
-16z m-465 -70 c7 -36 6 -38 -19 -38 -14 0 -36 10 -48 22 -21 21 -21 22 -3 32
10 6 25 19 34 28 18 21 26 12 36 -44z m-416 -8 l0 -25 -24 30 c-22 27 -23 30
-7 36 20 8 32 -7 31 -41z m299 32 l23 -18 -25 -23 c-25 -23 -25 -23 -50 -4
l-25 20 22 21 c26 26 26 26 55 4z m77 -72 c21 0 19 -10 -7 -37 -12 -13 -17
-23 -11 -23 6 0 16 7 23 15 10 12 15 13 28 3 13 -12 14 -10 3 10 -12 23 -8 42
6 28 8 -7 6 -103 -2 -115 -2 -4 -34 21 -70 56 l-66 64 23 19 c23 18 23 18 41
-1 10 -10 24 -19 32 -19z m-764 -70 c37 0 37 -15 1 -34 -30 -15 -56 -8 -79 23
-10 14 -14 14 -35 -6 -14 -13 -33 -23 -43 -23 -18 0 -18 1 0 20 23 26 73 39
103 28 13 -4 37 -8 53 -8z m126 -46 c7 -6 15 -25 18 -40 6 -28 6 -28 -9 -10
-9 11 -16 25 -16 30 0 6 -14 19 -30 28 -17 9 -30 22 -30 29 0 11 42 -11 67
-37z m615 -11 c82 -84 136 -205 139 -315 3 -65 -16 -90 -87 -112 -119 -38
-234 -28 -429 35 l-60 19 -28 68 c-45 110 -32 193 38 241 29 20 41 22 87 16
158 -20 228 -2 257 66 9 21 18 39 21 39 3 0 31 -26 62 -57z m-785 -25 c-21
-33 -56 -34 -85 -3 -20 20 -23 29 -13 32 7 3 21 13 30 22 15 16 18 15 48 -8
26 -21 29 -27 20 -43z m128 -8 c-24 -26 -59 -25 -85 2 -23 25 -26 38 -7 38 8
0 22 8 31 19 16 18 18 18 48 -11 30 -28 30 -29 13 -48z m-245 31 c0 -5 14 -24
31 -42 27 -29 29 -34 14 -48 -15 -15 -18 -14 -36 9 -12 16 -17 34 -14 48 4 15
2 21 -5 17 -5 -3 -10 1 -10 9 0 9 5 16 10 16 6 0 10 -4 10 -9z m188 -61 c19 0
-7 -36 -35 -49 -28 -13 -47 -6 -68 25 -12 19 -13 24 -2 24 8 0 22 9 32 20 l18
20 22 -20 c12 -11 27 -20 33 -20z m110 9 c20 -24 22 -32 12 -44 -17 -20 -59
-19 -82 2 -10 9 -18 11 -18 5 0 -6 12 -19 27 -30 27 -20 27 -20 9 -41 -24 -26
-57 -27 -87 -2 l-23 18 44 42 c24 22 47 41 52 41 4 0 13 9 20 20 16 25 18 25
46 -11z m-189 -68 c17 -9 20 -16 12 -24 -17 -17 -13 -31 4 -17 12 10 16 9 21
-3 3 -9 14 -19 25 -22 10 -4 19 -13 19 -20 0 -10 -15 -6 -52 16 -80 47 -99 67
-85 90 10 16 14 17 22 6 6 -8 21 -19 34 -26z m214 -71 c-3 -3 -16 8 -30 24
l-25 29 24 18 23 18 6 -42 c4 -23 4 -44 2 -47z m-10 -7 c17 -9 16 -11 -5 -39
-14 -18 -16 -24 -5 -15 15 12 17 11 17 -4 0 -14 -5 -16 -27 -10 -15 3 -39 15
-54 25 -14 11 -29 17 -32 14 -3 -3 -3 3 0 15 3 12 12 21 19 21 8 0 19 9 26 20
13 20 13 20 28 1 8 -10 23 -23 33 -28z"/>
<path d="M1256 1443 c-3 -4 -6 -15 -6 -25 0 -24 33 -21 38 3 3 17 -21 33 -32
22z"/>
<path d="M1036 1295 c-6 -17 16 -31 33 -21 13 9 2 36 -14 36 -7 0 -16 -7 -19
-15z"/>
<path d="M1260 1280 c0 -30 -21 -42 -35 -20 -9 15 -25 12 -25 -5 0 -8 9 -19
20 -25 43 -23 92 20 70 60 -16 29 -30 24 -30 -10z"/>
<path d="M2110 2300 c-118 -21 -208 -147 -165 -230 17 -32 67 -74 103 -85 55
-16 152 42 152 91 0 27 -69 84 -102 84 -28 0 -21 -26 11 -40 16 -6 37 -20 46
-30 15 -16 14 -19 -15 -44 -46 -38 -93 -35 -136 8 -60 60 -37 136 62 197 33
20 95 24 143 8 27 -8 21 18 -6 29 -47 17 -57 19 -93 12z"/>
<path d="M2420 2140 c-11 -21 -25 -62 -31 -89 -9 -46 -16 -54 -80 -100 -38
-28 -69 -55 -69 -61 0 -19 27 -10 71 23 71 54 89 61 152 58 32 -1 72 1 88 4
38 9 40 37 2 34 -16 -1 -52 -1 -80 -1 -63 2 -65 8 -29 99 13 34 21 64 18 67
-12 13 -22 4 -42 -34z"/>
<path d="M2517 1849 c-51 -12 -107 -42 -145 -77 -25 -23 -32 -38 -32 -67 0
-64 50 -130 107 -141 136 -26 310 144 247 241 -32 49 -93 64 -177 44z m122
-47 c45 -33 47 -45 17 -97 -47 -79 -154 -131 -217 -105 -33 14 -69 67 -69 102
0 38 69 93 150 119 35 11 90 3 119 -19z"/>
<path d="M1751 1633 c-70 -14 -108 -32 -136 -63 -39 -43 -18 -206 42 -323 21
-43 23 -53 12 -79 -18 -44 -6 -187 20 -241 40 -82 97 -86 180 -11 l50 45 14
-23 c58 -93 5 -198 -133 -262 -54 -25 -78 -30 -140 -30 -64 0 -84 5 -135 31
-69 36 -200 165 -233 229 -35 70 -59 66 -98 -15 -26 -53 -31 -197 -9 -276 9
-35 23 -70 31 -76 13 -10 13 -14 0 -28 -19 -21 -51 -128 -67 -224 -14 -83 -4
-170 27 -229 23 -45 46 -36 44 17 -2 47 173 201 288 254 l52 24 46 -22 c77
-39 174 -45 389 -25 110 10 228 62 276 122 13 16 45 43 70 60 60 40 146 136
180 199 27 49 58 181 56 238 -1 17 0 53 1 82 l2 51 40 7 c56 9 100 61 100 117
0 44 -24 84 -90 147 -36 34 -206 121 -238 121 -10 0 -47 22 -83 49 -132 100
-403 165 -558 134z m294 -52 c162 -42 158 -40 189 -115 48 -122 29 -206 -59
-248 -42 -20 -49 -21 -93 -9 -126 37 -242 -12 -242 -102 0 -18 -9 -13 -55 33
-94 92 -155 227 -155 338 0 71 15 89 98 114 89 26 190 23 317 -11z m268 -134
c-5 -9 -73 54 -73 68 0 3 18 -8 40 -26 22 -18 37 -36 33 -42z m-6 -99 c-2 -73
-4 -82 -26 -96 l-24 -16 18 34 c20 39 23 126 6 158 -16 31 -13 37 8 18 17 -15
19 -30 18 -98z m166 36 c94 -46 156 -94 195 -151 26 -37 27 -54 7 -92 -22 -43
-60 -52 -160 -39 -115 15 -139 30 -153 104 -12 61 -16 107 -13 182 1 31 5 42
17 42 8 0 57 -20 107 -46z m-144 -196 c1 -25 -16 -22 -46 8 l-26 26 29 17 c29
18 29 18 35 -8 4 -14 7 -34 8 -43z m-33 -22 c18 -14 18 -15 0 -35 -29 -32 -64
-28 -94 11 -12 15 -10 19 17 33 17 8 31 20 31 26 0 6 -12 1 -26 -10 -15 -12
-33 -21 -41 -21 -8 0 -12 -4 -9 -8 9 -15 -25 -52 -48 -52 -24 0 -52 24 -58 49
-2 11 8 14 44 12 47 -2 94 15 118 44 12 14 15 13 30 -10 9 -14 25 -32 36 -39z
m-245 16 c-6 -2 -9 -8 -6 -12 9 -15 -33 -50 -58 -50 -29 0 -77 47 -56 54 8 2
21 7 29 9 8 3 35 5 58 4 24 -1 39 -3 33 -5z m-85 -72 c22 0 16 -17 -13 -39
-16 -12 -34 -26 -40 -31 -10 -8 -13 -7 -13 5 0 8 -4 15 -10 15 -16 0 -12 57 5
64 8 3 15 11 15 17 0 8 -5 7 -17 -2 -15 -13 -15 -12 -4 9 l13 24 25 -31 c14
-17 32 -31 39 -31z m-220 13 c22 -21 63 -60 92 -87 l54 -48 -34 -35 c-72 -75
-113 -76 -142 -3 -14 35 -24 210 -12 210 2 0 21 -17 42 -37z m612 7 c32 -31
23 -43 -10 -13 -10 9 -18 11 -18 6 0 -6 10 -18 23 -27 l22 -15 -24 -21 c-29
-25 -32 -25 -65 1 -28 22 -34 39 -13 39 19 1 59 38 52 50 -12 19 3 10 33 -20z
m-220 -29 c17 6 33 18 36 26 6 14 9 13 29 -4 12 -11 29 -22 37 -25 11 -3 8
-11 -12 -31 -34 -34 -53 -34 -83 -1 -14 15 -25 23 -25 17 0 -5 29 -37 65 -71
39 -37 61 -64 54 -68 -10 -6 -58 41 -59 57 0 10 -77 49 -84 42 -3 -3 -6 -18
-6 -32 -1 -25 -1 -25 -15 -7 -21 27 -19 40 7 51 12 6 24 16 26 24 3 8 -8 4
-27 -10 l-31 -23 -30 22 c-16 13 -30 18 -30 12 0 -6 14 -19 31 -29 l32 -19
-25 -25 c-29 -29 -70 -27 -93 6 -13 19 -12 22 14 38 16 10 32 27 36 38 3 12
12 21 19 21 7 0 21 9 31 20 17 19 18 19 45 -10 25 -27 31 -29 58 -19z m350
-32 c12 -5 22 -6 22 -2 0 3 9 -6 20 -20 11 -14 20 -37 20 -51 0 -22 -4 -26
-30 -26 -17 0 -38 9 -50 22 -20 21 -20 23 -4 35 10 7 21 13 26 13 4 0 8 5 8
10 0 6 -11 3 -26 -6 -24 -16 -26 -16 -55 5 -16 12 -29 17 -29 12 0 -5 11 -18
25 -28 l26 -18 -21 -23 c-26 -28 -47 -28 -76 -1 -23 22 -22 49 2 49 7 0 21 11
31 25 15 20 24 23 53 18 19 -3 45 -10 58 -14z m-188 -69 c-17 -31 -65 -30 -93
2 -17 20 -17 21 13 39 16 10 30 23 30 28 0 5 14 -4 31 -20 25 -24 28 -31 19
-49z m260 54 c0 -14 -3 -14 -15 -4 -8 7 -15 14 -15 16 0 2 7 4 15 4 8 0 15 -7
15 -16z m-460 -108 c0 -15 -28 -36 -49 -36 -16 0 -51 38 -51 55 0 8 7 15 15
15 8 0 19 9 25 20 11 20 12 20 35 -9 14 -16 25 -36 25 -45z m153 -106 c31 -63
32 -69 32 -200 0 -124 -2 -138 -24 -173 -26 -43 -101 -90 -176 -111 -130 -36
-445 -34 -445 3 0 5 19 11 43 14 98 13 325 57 367 72 72 25 117 60 130 101 20
61 9 140 -34 223 -30 59 -36 79 -30 105 4 17 7 56 6 86 l-1 55 50 -55 c28 -30
65 -84 82 -120z m117 118 c11 -3 8 -11 -12 -31 -32 -32 -47 -34 -76 -7 -28 27
-28 38 3 50 14 5 25 15 25 21 0 7 10 4 23 -8 12 -11 29 -22 37 -25z m128 2
c18 0 15 -11 -10 -37 -28 -29 -43 -29 -74 2 l-25 25 28 24 c28 24 28 24 49 5
11 -10 26 -19 32 -19z m-515 2 c-1 -6 14 -25 33 -42 35 -30 35 -32 18 -51 -24
-27 -31 -24 -39 18 -4 21 -13 50 -22 66 -11 23 -12 28 -1 24 7 -2 12 -9 11
-15z m567 -29 c-1 -27 -1 -27 -15 -9 -19 25 -19 36 0 36 10 0 15 -10 15 -27z
m-251 -65 c-6 -12 -6 -18 1 -18 5 0 10 5 10 11 0 14 59 -33 59 -48 1 -12 -36
-43 -51 -43 -5 0 -8 6 -8 14 0 7 -15 43 -33 80 -19 36 -32 68 -30 70 2 2 16
-9 32 -23 22 -20 27 -30 20 -43z m141 9 c0 -3 -7 -13 -16 -21 -24 -25 -69 -20
-88 9 -16 24 -15 25 14 40 16 9 30 19 30 24 0 5 14 -4 30 -19 17 -15 30 -30
30 -33z m88 -65 c-21 -97 -30 -111 -53 -92 -22 19 -19 34 15 58 29 22 41 52
20 52 -5 0 -18 10 -30 22 -11 12 -20 17 -20 11 0 -7 11 -20 25 -31 l25 -20
-26 -21 c-33 -26 -42 -26 -71 1 -13 12 -23 17 -23 10 0 -6 11 -19 25 -30 27
-22 25 -46 -5 -62 -21 -11 -46 -5 -73 18 -16 15 -17 14 -11 -2 4 -10 17 -22
31 -27 20 -8 22 -11 11 -29 -11 -18 -37 -34 -44 -28 -2 3 -7 85 -5 104 1 6 12
16 26 22 14 7 30 23 37 37 6 14 16 25 22 25 6 0 33 23 60 50 45 46 51 49 66
35 17 -15 17 -21 -2 -103z m-1264 92 c5 -14 4 -15 -9 -4 -17 14 -19 20 -6 20
5 0 12 -7 15 -16z m836 2 c0 -1 -5 -17 -11 -34 -7 -21 -7 -37 0 -50 21 -39
-35 -58 -72 -24 -15 12 -19 13 -15 3 2 -8 13 -19 24 -25 10 -6 21 -12 23 -13
8 -5 -24 -35 -44 -43 -11 -4 -28 -3 -38 2 -17 9 -17 10 2 37 11 15 23 39 26
54 4 15 13 27 21 27 8 0 19 9 26 19 10 16 15 18 27 8 12 -10 13 -9 3 10 -9 16
-9 23 1 26 15 7 27 8 27 3z m-845 -37 c4 -11 49 -63 101 -115 85 -85 93 -96
83 -115 -25 -48 24 -229 67 -246 21 -8 17 -20 -10 -27 -67 -17 -296 -206 -296
-244 0 -12 -3 -13 -12 -4 -32 32 1 249 54 360 l21 44 -24 41 c-21 38 -24 54
-24 157 0 116 8 170 25 170 5 0 12 -9 15 -21z m868 -124 c20 -42 5 -47 -37
-14 -14 11 -26 16 -26 10 0 -6 14 -20 31 -30 l32 -19 -28 -26 c-34 -31 -49
-32 -75 -6 -23 23 -26 50 -5 50 8 0 22 12 32 28 34 53 53 55 76 7z m345 -33
c18 -18 18 -20 -4 -51 l-23 -33 -27 27 -28 28 27 14 c15 7 27 18 27 23 0 15 8
12 28 -8z m-488 -14 c0 -6 16 -26 35 -44 l36 -33 -21 -21 c-27 -27 -52 -25
-80 5 l-23 25 26 21 c15 11 27 25 27 32 0 6 -9 1 -20 -11 -22 -23 -46 -28 -68
-13 -10 6 -6 14 18 33 31 25 70 27 70 6z m170 -19 c0 -6 -4 -7 -10 -4 -5 3
-10 2 -10 -4 0 -5 5 -13 10 -16 6 -3 10 -22 10 -41 0 -33 -2 -35 -31 -32 -19
2 -38 12 -46 25 -14 21 -13 23 10 34 14 6 30 22 37 35 12 22 30 24 30 3z m259
-85 c-28 -30 -43 -30 -69 -2 -23 25 -26 38 -7 38 8 0 22 9 32 20 18 20 18 20
42 -6 l24 -26 -22 -24z m-516 53 c20 -10 23 -17 15 -31 -16 -29 -57 -39 -84
-21 -31 20 -30 31 4 48 35 19 35 19 65 4z m-351 -38 c15 -16 32 -29 39 -29 7
0 2 -11 -11 -25 -29 -31 -63 -32 -89 -3 l-21 21 30 19 c17 10 30 23 30 29 0 6
-12 1 -27 -10 -31 -25 -38 -21 -29 14 5 21 11 25 29 19 12 -3 34 -19 49 -35z
m73 -10 c16 -16 -30 -10 -51 6 -18 14 -17 15 11 9 17 -4 34 -11 40 -15z m146
7 c-15 -18 -45 -26 -62 -16 -9 6 -2 12 22 18 48 14 53 14 40 -2z m80 -36 c7 0
2 -11 -11 -25 -27 -29 -56 -32 -82 -8 -22 20 -24 43 -3 43 8 0 20 9 27 19 12
19 13 19 35 -5 12 -13 28 -24 34 -24z m110 -31 c-30 -24 -42 -24 -69 1 l-22
21 32 28 32 28 25 -30 25 -30 -23 -18z m149 31 c18 0 10 -29 -12 -44 -31 -22
-45 -20 -73 9 -14 13 -25 20 -25 15 0 -12 33 -46 51 -52 21 -8 5 -19 -41 -29
-42 -9 -70 0 -70 23 0 11 66 78 78 78 5 0 17 9 27 20 l18 20 19 -20 c10 -11
23 -20 28 -20z m-407 16 c22 -17 22 -33 -2 -46 -28 -14 -52 -12 -73 7 -10 9
-18 12 -18 6 0 -5 11 -16 25 -23 32 -17 29 -39 -7 -59 -25 -14 -29 -14 -54 5
-32 23 -42 44 -22 44 8 0 31 18 52 40 39 42 68 49 99 26z m671 -38 c-3 -4 -17
-16 -32 -27 l-28 -20 10 44 c10 42 10 43 32 26 12 -9 20 -19 18 -23z m-227 -2
c-11 -22 -54 -56 -72 -56 -7 0 67 76 77 79 3 0 1 -10 -5 -23z m-629 -26 c17 0
15 -15 -3 -30 -18 -15 -19 -15 -34 29 -11 33 -10 33 7 18 10 -10 24 -17 30
-17z m231 11 c10 -10 25 -21 32 -23 11 -4 10 -10 -5 -27 -23 -26 -62 -27 -89
-3 -19 16 -20 16 -8 -5 6 -13 18 -23 26 -23 18 0 20 -24 3 -38 -7 -5 -41 -13
-75 -17 -62 -7 -63 -6 -93 26 -34 37 -35 42 -17 56 8 7 22 3 44 -12 30 -21 31
-24 17 -44 -8 -11 -11 -21 -6 -21 6 0 13 7 16 17 6 14 8 14 21 -3 8 -10 15
-14 15 -8 0 5 -6 16 -12 23 -11 11 -10 14 1 19 7 2 21 13 30 24 21 24 75 78
78 78 2 0 11 -8 22 -19z m168 -41 c-1 -8 -14 -21 -29 -29 -25 -14 -29 -14 -59
8 -18 14 -30 18 -27 10 2 -8 17 -20 32 -27 15 -8 26 -15 24 -17 -2 -1 -29 -6
-60 -9 -48 -6 -58 -5 -58 8 0 8 8 17 18 20 11 4 24 16 31 29 7 12 27 31 44 43
l32 20 27 -20 c15 -12 26 -28 25 -36z m28 -21 c9 -13 7 -15 -28 -23 -27 -6
-27 -6 -10 13 21 23 29 25 38 10z m-315 -103 c0 -3 -4 -8 -10 -11 -5 -3 -10
-1 -10 4 0 6 5 11 10 11 6 0 10 -2 10 -4z"/>
<path d="M1726 1511 c-11 -13 -15 -27 -11 -40 9 -29 37 -28 33 2 -3 19 1 22
30 21 34 -2 45 19 16 30 -28 11 -51 6 -68 -13z"/>
<path d="M1935 1480 c-4 -7 -3 -16 3 -22 14 -14 45 -2 40 15 -6 16 -34 21 -43
7z"/>
<path d="M1725 1340 c-8 -14 3 -30 21 -30 8 0 14 9 14 20 0 21 -24 28 -35 10z"/>
<path d="M459 1111 c-75 -15 -170 -96 -185 -158 -9 -34 15 -82 50 -104 68 -42
226 -11 295 58 30 30 33 38 28 75 -13 93 -93 148 -188 129z m107 -45 c11 -8
28 -32 38 -53 26 -58 12 -84 -68 -123 -56 -28 -73 -32 -121 -28 -44 4 -62 11
-85 33 -17 16 -30 34 -30 40 0 25 69 101 111 122 51 26 124 30 155 9z"/>
<path d="M634 736 c-70 -43 -71 -43 -129 -34 -77 12 -120 7 -120 -12 0 -8 6
-14 13 -12 16 3 133 -15 139 -22 3 -3 -10 -37 -28 -76 -23 -51 -29 -74 -21
-82 13 -13 43 33 73 112 18 50 26 59 95 102 41 27 72 52 69 58 -9 15 -14 13
-91 -34z"/>
<path d="M812 639 c-75 -37 -80 -87 -14 -133 21 -14 43 -26 50 -26 25 0 10 28
-28 55 -22 15 -40 32 -40 37 0 14 63 48 88 48 35 0 78 -29 98 -65 32 -60 -13
-130 -109 -170 -46 -19 -74 -19 -111 0 -38 20 -56 4 -21 -19 67 -44 163 -24
234 48 37 38 45 52 49 94 4 44 1 52 -29 87 -32 36 -82 65 -111 65 -7 0 -32
-10 -56 -21z"/>
</g>
</svg>
